<svg width="18" height="19" viewBox="0 0 18 19" fill="none" xmlns="http://www.w3.org/2000/svg">
<path d="M1.71753 6.33498V13.6325C1.71753 15.0575 2.73003 15.6425 3.96003 14.9375L5.72253 13.9325C6.10503 13.715 6.74253 13.6925 7.14003 13.895L11.0775 15.8675C11.475 16.0625 12.1125 16.0475 12.495 15.83L15.7425 13.97C16.155 13.73 16.5 13.145 16.5 12.665V5.36748C16.5 3.94248 15.4875 3.35748 14.2575 4.06248L12.495 5.06748C12.1125 5.28498 11.475 5.30748 11.0775 5.10498L7.14003 3.13998C6.74253 2.94498 6.10503 2.95998 5.72253 3.17748L2.47503 5.03748C2.05503 5.27748 1.71753 5.86248 1.71753 6.33498Z" stroke="#292D32" stroke-width="1.5" stroke-linecap="round" stroke-linejoin="round"/>
<path d="M6.41992 3.5V13.25" stroke="#292D32" stroke-width="1.5" stroke-linecap="round" stroke-linejoin="round"/>
<path d="M11.7976 5.46484V15.4998" stroke="#292D32" stroke-width="1.5" stroke-linecap="round" stroke-linejoin="round"/>
</svg>
