 <svg width="18" height="19" viewBox="0 0 18 19" fill="none" xmlns="http://www.w3.org/2000/svg">
                                        <path d="M1.71753 6.335V13.6325C1.71753 15.0575 2.73003 15.6425 3.96003 14.9375L5.72253 13.9325C6.10503 13.715 6.74253 13.6925 7.14003 13.895L11.0775 15.8675C11.475 16.0625 12.1125 16.0475 12.495 15.83L15.7425 13.97C16.155 13.73 16.5 13.145 16.5 12.665V5.3675C16.5 3.9425 15.4875 3.3575 14.2575 4.0625L12.495 5.0675C12.1125 5.285 11.475 5.3075 11.0775 5.105L7.14003 3.14C6.74253 2.945 6.10503 2.96 5.72253 3.1775L2.47503 5.0375C2.05503 5.2775 1.71753 5.8625 1.71753 6.335Z" stroke="#292D32" stroke-width="1.5" stroke-linecap="round" stroke-linejoin="round"/>
                                        <path d="M6.42004 3.5V13.25" stroke="#292D32" stroke-width="1.5" stroke-linecap="round" stroke-linejoin="round"/>
                                        <path d="M11.7975 5.465V15.5" stroke="#292D32" stroke-width="1.5" stroke-linecap="round" stroke-linejoin="round"/>
                                    </svg> 