<svg width="42" height="42" viewBox="0 0 42 42" fill="none" xmlns="http://www.w3.org/2000/svg">
<path d="M21 12.25C24.713 12.25 28.274 13.725 30.8995 16.3505C33.525 18.9761 35 22.537 35 26.25C35 29.9631 33.525 33.524 30.8995 36.1495C28.274 38.775 24.713 40.25 21 40.25C17.287 40.25 13.726 38.775 11.1005 36.1495C8.475 33.524 7 29.9631 7 26.25C7 22.537 8.475 18.9761 11.1005 16.3505C13.726 13.725 17.287 12.25 21 12.25ZM21 15.75C18.2152 15.75 15.5445 16.8563 13.5754 18.8254C11.6062 20.7946 10.5 23.4653 10.5 26.25C10.5 29.0348 11.6062 31.7055 13.5754 33.6747C15.5445 35.6438 18.2152 36.75 21 36.75C23.7848 36.75 26.4555 35.6438 28.4246 33.6747C30.3938 31.7055 31.5 29.0348 31.5 26.25C31.5 23.4653 30.3938 20.7946 28.4246 18.8254C26.4555 16.8563 23.7848 15.75 21 15.75ZM21 18.375L23.3153 23.065L28.49 23.8175L24.745 27.4663L25.6287 32.6218L21 30.1875L16.3712 32.62L17.255 27.4663L13.51 23.8158L18.6847 23.0633L21 18.375ZM31.5 3.50004V8.75004L29.1147 10.7415C27.1354 9.70306 24.9744 9.056 22.75 8.83579V3.50004H31.5ZM19.25 3.49829V8.83579C17.0264 9.05567 14.8659 9.70213 12.887 10.7398L10.5 8.75004V3.50004L19.25 3.49829Z" fill="#DA0302"/>
</svg>
