<svg width="42" height="42" viewBox="0 0 42 42" fill="none" xmlns="http://www.w3.org/2000/svg">
<path d="M36.75 35C36.75 35.4641 36.5656 35.9092 36.2374 36.2374C35.9093 36.5656 35.4641 36.75 35 36.75H7C6.53587 36.75 6.09075 36.5656 5.76256 36.2374C5.43437 35.9092 5.25 35.4641 5.25 35V16.6075C5.24982 16.3408 5.31058 16.0776 5.42765 15.838C5.54473 15.5984 5.71501 15.3887 5.9255 15.225L19.9255 4.33649C20.2327 4.09752 20.6108 3.96777 21 3.96777C21.3892 3.96777 21.7673 4.09752 22.0745 4.33649L36.0745 15.225C36.285 15.3887 36.4553 15.5984 36.5723 15.838C36.6894 16.0776 36.7502 16.3408 36.75 16.6075V35ZM33.25 33.25V17.4615L21 7.93449L8.75 17.4615V33.25H33.25ZM12.25 26.25H29.75V29.75H12.25V26.25Z" fill="#DA0302"/>
</svg>
