<svg width="42" height="42" viewBox="0 0 42 42" fill="none" xmlns="http://www.w3.org/2000/svg">
<path d="M12.3374 24.7118L8.62743 28.4253L13.5764 33.3743L33.3742 13.5748L28.4252 8.62753L24.7099 12.3375L27.1862 14.812L24.7099 17.29L22.2354 14.8138L19.7609 17.29L22.2354 19.7645L19.7609 22.239L17.2864 19.7645L14.8102 22.239L17.2864 24.7135L14.8102 27.1898L12.3374 24.71V24.7118ZM29.6624 4.91403L37.0859 12.3375C37.414 12.6657 37.5983 13.1107 37.5983 13.5748C37.5983 14.0388 37.414 14.4839 37.0859 14.812L14.8119 37.086C14.4838 37.4141 14.0387 37.5984 13.5747 37.5984C13.1106 37.5984 12.6656 37.4141 12.3374 37.086L4.91393 29.6625C4.58585 29.3344 4.40155 28.8893 4.40155 28.4253C4.40155 27.9612 4.58585 27.5162 4.91393 27.188L27.1879 4.91403C27.5161 4.58595 27.9611 4.40165 28.4252 4.40165C28.8892 4.40165 29.3343 4.58595 29.6624 4.91403ZM24.7099 32.1353L27.1862 29.6608L31.1097 33.586H33.5842V31.1115L29.6607 27.1863L32.1352 24.7118L36.7499 29.3248V36.75H29.3264L24.7117 32.1353H24.7099ZM9.86293 17.2865L4.91218 12.3375C4.74947 12.175 4.62039 11.982 4.53232 11.7695C4.44426 11.5571 4.39893 11.3294 4.39893 11.0994C4.39893 10.8694 4.44426 10.6417 4.53232 10.4293C4.62039 10.2168 4.74947 10.0238 4.91218 9.86128L9.86293 4.91228C10.1911 4.5842 10.6361 4.3999 11.1002 4.3999C11.5642 4.3999 12.0093 4.5842 12.3374 4.91228L17.2899 9.86128L14.8119 12.3375L11.1002 8.62403L8.62568 11.1003L12.3374 14.8103L9.86293 17.2865Z" fill="#DA0302"/>
</svg>
