<svg width="42" height="42" viewBox="0 0 42 42" fill="none" xmlns="http://www.w3.org/2000/svg">
<path d="M21 38.5C11.3348 38.5 3.5 30.6652 3.5 21C3.5 11.3348 11.3348 3.5 21 3.5C30.6652 3.5 38.5 11.3348 38.5 21C38.5 30.6652 30.6652 38.5 21 38.5ZM21 35C24.713 35 28.274 33.525 30.8995 30.8995C33.525 28.274 35 24.713 35 21C35 17.287 33.525 13.726 30.8995 11.1005C28.274 8.475 24.713 7 21 7C17.287 7 13.726 8.475 11.1005 11.1005C8.475 13.726 7 17.287 7 21C7 24.713 8.475 28.274 11.1005 30.8995C13.726 33.525 17.287 35 21 35V35ZM14.875 24.5H24.5C24.7321 24.5 24.9546 24.4078 25.1187 24.2437C25.2828 24.0796 25.375 23.8571 25.375 23.625C25.375 23.3929 25.2828 23.1704 25.1187 23.0063C24.9546 22.8422 24.7321 22.75 24.5 22.75H17.5C16.3397 22.75 15.2269 22.2891 14.4064 21.4686C13.5859 20.6481 13.125 19.5353 13.125 18.375C13.125 17.2147 13.5859 16.1019 14.4064 15.2814C15.2269 14.4609 16.3397 14 17.5 14H19.25V10.5H22.75V14H27.125V17.5H17.5C17.2679 17.5 17.0454 17.5922 16.8813 17.7563C16.7172 17.9204 16.625 18.1429 16.625 18.375C16.625 18.6071 16.7172 18.8296 16.8813 18.9937C17.0454 19.1578 17.2679 19.25 17.5 19.25H24.5C25.6603 19.25 26.7731 19.7109 27.5936 20.5314C28.4141 21.3519 28.875 22.4647 28.875 23.625C28.875 24.7853 28.4141 25.8981 27.5936 26.7186C26.7731 27.5391 25.6603 28 24.5 28H22.75V31.5H19.25V28H14.875V24.5Z" fill="#DA0302"/>
</svg>
