<svg width="100" height="32" viewBox="0 0 100 32" fill="none" xmlns="http://www.w3.org/2000/svg">
<g clip-path="url(#clip0_23_17587)">
<path fill-rule="evenodd" clip-rule="evenodd" d="M97.9121 1.64087C99.0681 1.64087 100 2.58334 100 3.75237C100 4.9214 99.0681 5.86388 97.9121 5.86388C96.7561 5.86388 95.8241 4.9214 95.8241 3.75237C95.8241 2.58334 96.7561 1.64087 97.9121 1.64087ZM97.9121 1.95805C98.8889 1.95805 99.6864 2.76459 99.6864 3.75237C99.6864 4.74016 98.8889 5.5467 97.9121 5.5467C96.9353 5.5467 96.1377 4.74016 96.1377 3.75237C96.1377 2.76459 96.9353 1.95805 97.9121 1.95805Z" fill="#DA0302"/>
<path d="M97.0876 4.76734V2.71927H97.9838C98.163 2.71927 98.3064 2.73739 98.396 2.77364C98.4856 2.80989 98.5663 2.87333 98.62 2.97301C98.6738 3.06363 98.7007 3.17238 98.7007 3.28113C98.7007 3.42612 98.6559 3.553 98.5573 3.65268C98.4677 3.75237 98.3243 3.8158 98.1271 3.84299C98.1988 3.87924 98.2526 3.91549 98.2884 3.94267C98.3691 4.01517 98.4408 4.10579 98.5125 4.21454L98.862 4.7764H98.5304L98.2616 4.35047C98.1809 4.2236 98.1182 4.13298 98.0644 4.06954C98.0106 4.00611 97.9658 3.9608 97.93 3.93361C97.8941 3.90642 97.8493 3.8883 97.8045 3.87924C97.7777 3.87017 97.7239 3.87017 97.6522 3.87017H97.3385V4.78546H97.0697L97.0876 4.76734ZM97.3565 3.62549H97.93C98.0555 3.62549 98.1451 3.61643 98.2168 3.58924C98.2884 3.56206 98.3422 3.52581 98.3691 3.46237C98.4049 3.408 98.4229 3.34456 98.4229 3.28113C98.4229 3.18144 98.387 3.09988 98.3153 3.04551C98.2436 2.98207 98.1361 2.95489 97.9838 2.95489H97.3385V3.63456L97.3565 3.62549Z" fill="#DA0302"/>
<path fill-rule="evenodd" clip-rule="evenodd" d="M95.143 7.33198C94.3007 6.89699 93.3597 6.61606 92.4367 6.42575C91.2538 6.18107 90.044 6.0542 88.8342 6.0542C87.3735 6.0542 85.8501 6.22638 84.479 6.77918C83.4395 7.19604 82.4627 7.80321 81.7726 8.70944C81.1633 9.51598 80.8675 10.4313 80.8675 11.4462C80.8675 12.4884 81.0916 13.5577 81.8175 14.3371C82.4627 15.0258 83.2334 15.5061 84.1385 15.7689C85.2407 16.0861 86.4146 16.2764 87.5527 16.4214C88.3234 16.5211 89.2016 16.657 89.9454 16.8926C90.4652 17.0648 90.8953 17.4001 90.8953 17.9982C90.8953 18.542 90.5817 18.9226 90.1067 19.1491C89.5063 19.4482 88.5743 19.4844 87.9202 19.4844C86.8269 19.4844 85.7336 19.3304 84.6761 19.0495C82.0504 18.3426 80.6077 21.5778 80.6077 21.5778C81.5217 22.1034 82.5971 22.4478 83.6097 22.6834C84.9629 23.0097 86.343 23.1637 87.7409 23.1637C89.2285 23.1637 90.7878 22.9915 92.1858 22.4569C93.2343 22.0581 94.229 21.46 94.919 20.5447C95.5284 19.7473 95.8241 18.841 95.8241 17.8351C95.8241 16.8111 95.609 15.7599 94.8921 14.9896C94.2648 14.3099 93.5121 13.8296 92.6338 13.5668C91.5226 13.2315 90.3397 13.0231 89.2016 12.8509C88.422 12.7331 87.5169 12.5971 86.7731 12.3434C86.2354 12.1712 85.8411 11.8087 85.8411 11.2106C85.8411 10.6578 86.2085 10.2953 86.6656 10.0597C87.2839 9.74253 88.189 9.69722 88.8701 9.69722C89.6587 9.69722 90.4293 9.77878 91.1731 9.95096C94.1931 10.6306 95.143 7.33198 95.143 7.33198Z" fill="#DA0302"/>
<path fill-rule="evenodd" clip-rule="evenodd" d="M70.3827 19.0132C69.2894 19.0132 68.3395 18.6326 67.5867 17.817C66.7713 16.9289 66.5024 15.7599 66.5024 14.5818C66.5024 13.4127 66.7802 12.2618 67.5867 11.3919C68.3395 10.5853 69.2894 10.2138 70.3827 10.2138C71.476 10.2138 72.4259 10.5853 73.1786 11.3919C73.9941 12.2618 74.263 13.4127 74.263 14.5818C74.263 15.7599 73.9941 16.9289 73.1786 17.817C72.4348 18.6326 71.476 19.0132 70.3827 19.0132ZM79.6577 14.5818C79.6577 13.0049 79.2993 11.5097 78.4838 10.1685C77.6773 8.84537 76.566 7.84853 75.195 7.15073C73.6894 6.38044 72.0585 6.06326 70.3827 6.06326C68.7159 6.06326 67.0849 6.38044 65.5884 7.15073C64.2173 7.85759 63.106 8.8635 62.2995 10.1866C61.4751 11.5278 61.1077 13.014 61.1077 14.5818C61.1077 16.1677 61.4751 17.6629 62.2995 19.0132C63.115 20.3454 64.2352 21.3513 65.6063 22.0672C67.0939 22.8465 68.7159 23.1728 70.3827 23.1728C72.0585 23.1728 73.6894 22.8465 75.195 22.0672C76.566 21.3513 77.6862 20.3454 78.4838 19.0132C79.2993 17.6629 79.6577 16.1677 79.6577 14.5818Z" fill="#DA0302"/>
<path fill-rule="evenodd" clip-rule="evenodd" d="M55.8204 22.8828H62.2367L54.8167 13.3493L63.8856 3.81582C59.9337 4.08768 56.5463 5.38358 53.5353 8.12945C52.0925 9.44347 50.7483 10.8662 49.3682 12.2346L48.8395 12.7512L46.9486 14.3915L48.8395 11.5368V0.000610352C43.624 0.000610352 43.8838 4.27799 43.8838 4.27799V22.8828H48.8395V18.8501L50.9275 16.7023L55.8114 22.8828H55.8204Z" fill="#DA0302"/>
<path fill-rule="evenodd" clip-rule="evenodd" d="M32.8613 9.70629C33.7933 9.70629 34.6536 9.96003 35.3616 10.5763C36.0695 11.1834 36.4728 11.99 36.643 12.9143L36.7147 13.2859H29.0169L29.0886 12.9143C29.2589 11.999 29.6621 11.1834 30.3701 10.5763C31.087 9.96909 31.9473 9.70629 32.8703 9.70629H32.8613ZM41.6614 15.8233C41.7331 13.9474 41.3926 11.6184 40.4427 10.0416C39.672 8.75475 38.6235 7.76697 37.2972 7.0873C35.8992 6.37138 34.3937 6.06326 32.8345 6.06326C31.2035 6.06326 29.6352 6.3895 28.1835 7.16886C26.8393 7.88477 25.755 8.89068 24.9664 10.2047C24.1598 11.5459 23.8014 13.0231 23.8014 14.5908C23.8014 16.1767 24.1688 17.672 24.9933 19.0223C25.8177 20.3726 26.9648 21.3694 28.3627 22.0763C29.9489 22.8737 31.6964 23.1818 33.4528 23.1818C37.1718 23.1818 40.2007 21.4328 41.3478 17.8895C35.9082 16.8201 38.1754 18.1614 34.5013 19.1582C32.3147 19.7563 29.6801 18.8229 29.1693 16.2039L29.0976 15.8324H41.6614V15.8233Z" fill="#DA0302"/>
<path fill-rule="evenodd" clip-rule="evenodd" d="M9.83963 18.5057H5.60986V5.70983H9.83963C11.605 5.70983 13.2718 6.172 14.5802 7.41353C15.8975 8.65506 16.3814 10.3225 16.3814 12.1078C16.3814 13.9021 15.8886 15.5605 14.5802 16.802C13.2718 18.0435 11.605 18.5057 9.83963 18.5057ZM0.0269172 5.87295V22.8828H10.0905C12.2502 22.8828 14.392 22.5112 16.3456 21.5506C18.0931 20.6988 19.5179 19.4663 20.5395 17.7989C21.597 16.068 22.0271 14.1287 22.0271 12.0987C22.0271 10.0778 21.597 8.12944 20.5395 6.39856C19.5179 4.7311 18.0931 3.5077 16.3456 2.64679C14.392 1.68619 12.2502 1.31464 10.0905 1.31464C8.37892 1.31464 6.67626 1.31464 4.9736 1.31464C-0.716877 1.31464 0.0358786 5.85482 0.0358786 5.85482L0.0269172 5.87295Z" fill="#DA0302"/>
<path fill-rule="evenodd" clip-rule="evenodd" d="M85.626 26.1724C65.7586 31.0207 33.8471 19.2941 10.207 31.9994C37.4048 26.4624 68.4918 38.2252 85.626 26.1724Z" fill="#DA0302"/>
</g>
<defs>
<clipPath id="clip0_23_17587">
<rect width="100" height="32" fill="white"/>
</clipPath>
</defs>
</svg>
